<svg width="14" height="11" viewBox="0 0 14 11" fill="none" xmlns="http://www.w3.org/2000/svg">
<path d="M11.1402 0.766489C11.3603 0.55694 11.6532 0.441094 11.9571 0.443393C12.261 0.445692 12.5521 0.565959 12.769 0.778814C12.9859 0.991669 13.1116 1.28046 13.1197 1.58426C13.1277 1.88806 13.0174 2.18309 12.812 2.40711L6.57767 10.204C6.47047 10.3195 6.34108 10.4121 6.19725 10.4764C6.05342 10.5408 5.89809 10.5754 5.74056 10.5783C5.58303 10.5812 5.42653 10.5524 5.28041 10.4934C5.1343 10.4345 5.00157 10.3467 4.89017 10.2352L0.755794 6.10086C0.640659 5.99358 0.548312 5.8642 0.484262 5.72045C0.420212 5.57671 0.385771 5.42153 0.382995 5.26418C0.380219 5.10683 0.409164 4.95054 0.468103 4.80462C0.527042 4.6587 0.614768 4.52615 0.726047 4.41487C0.837327 4.30359 0.969879 4.21586 1.1158 4.15692C1.26172 4.09798 1.41801 4.06904 1.57536 4.07181C1.73271 4.07459 1.88789 4.10903 2.03164 4.17308C2.17538 4.23713 2.30476 4.32948 2.41204 4.44461L5.68392 7.71493L11.1105 0.800864C11.1203 0.788834 11.1307 0.777358 11.1417 0.766489H11.1402Z" fill="#3C8F7D"/>
</svg>
