<svg width="30" height="44" viewBox="0 0 30 44" fill="none" xmlns="http://www.w3.org/2000/svg">
<path fill-rule="evenodd" clip-rule="evenodd" d="M15 43.875C14.5856 43.875 14.1882 43.7104 13.8951 43.4174C13.6021 43.1243 13.4375 42.7269 13.4375 42.3125L13.4375 5.45937L3.60623 15.2938C3.31284 15.5871 2.91491 15.752 2.49998 15.752C2.08506 15.752 1.68713 15.5871 1.39373 15.2938C1.10034 15.0004 0.935513 14.6024 0.935513 14.1875C0.935511 13.7726 1.10034 13.3746 1.39373 13.0812L13.8937 0.581249C14.0389 0.435741 14.2113 0.320293 14.4011 0.241524C14.591 0.162754 14.7945 0.122208 15 0.122208C15.2055 0.122208 15.409 0.162754 15.5988 0.241524C15.7887 0.320293 15.9611 0.435741 16.1062 0.581249L28.6062 13.0812C28.8996 13.3746 29.0645 13.7726 29.0645 14.1875C29.0645 14.6024 28.8996 15.0004 28.6062 15.2938C28.3128 15.5871 27.9149 15.752 27.5 15.752C27.0851 15.752 26.6871 15.5871 26.3937 15.2938L16.5625 5.45937L16.5625 42.3125C16.5625 42.7269 16.3979 43.1243 16.1048 43.4174C15.8118 43.7104 15.4144 43.875 15 43.875Z" fill="url(#paint0_linear)"/>
<defs>
<linearGradient id="paint0_linear" x1="15" y1="43.875" x2="15" y2="0.122208" gradientUnits="userSpaceOnUse">
<stop stop-color="#96D8CA"/>
<stop offset="1" stop-color="#3C8F7D"/>
</linearGradient>
</defs>
</svg>
