<svg width="30" height="44" viewBox="0 0 30 44" fill="none" xmlns="http://www.w3.org/2000/svg">
<path fill-rule="evenodd" clip-rule="evenodd" d="M15 0.125C15.4144 0.125 15.8118 0.28962 16.1049 0.582646C16.3979 0.875671 16.5625 1.2731 16.5625 1.6875V38.5406L26.3938 28.7062C26.6872 28.4129 27.0851 28.248 27.5 28.248C27.9149 28.248 28.3129 28.4129 28.6063 28.7062C28.8997 28.9996 29.0645 29.3976 29.0645 29.8125C29.0645 30.2274 28.8997 30.6254 28.6063 30.9188L16.1063 43.4188C15.9611 43.5643 15.7887 43.6797 15.5989 43.7585C15.409 43.8372 15.2055 43.8778 15 43.8778C14.7945 43.8778 14.591 43.8372 14.4012 43.7585C14.2113 43.6797 14.0389 43.5643 13.8938 43.4188L1.39377 30.9188C1.10037 30.6254 0.935547 30.2274 0.935547 29.8125C0.935547 29.3976 1.10037 28.9996 1.39377 28.7062C1.68717 28.4129 2.0851 28.248 2.50002 28.248C2.91494 28.248 3.31287 28.4129 3.60627 28.7062L13.4375 38.5406V1.6875C13.4375 1.2731 13.6021 0.875671 13.8952 0.582646C14.1882 0.28962 14.5856 0.125 15 0.125Z" fill="#FFB93F"/>
</svg>
