<svg width="30" height="44" viewBox="0 0 30 44" fill="none" xmlns="http://www.w3.org/2000/svg">
<path fill-rule="evenodd" clip-rule="evenodd" d="M15.0044 43.8777C14.59 43.8778 14.1925 43.7133 13.8994 43.4203C13.6064 43.1273 13.4417 42.7299 13.4416 42.3155L13.4344 5.4624L3.60509 15.2987C3.31176 15.5921 2.91386 15.757 2.49893 15.7571C2.08401 15.7572 1.68605 15.5925 1.39259 15.2991C1.09914 15.0058 0.934238 14.6079 0.934158 14.1929C0.934078 13.778 1.09883 13.3801 1.39217 13.0866L13.8897 0.584191C14.0349 0.438652 14.2073 0.323174 14.3971 0.244367C14.5869 0.16556 14.7904 0.124974 14.9959 0.124934C15.2014 0.124894 15.4049 0.165401 15.5948 0.244135C15.7846 0.322868 15.9571 0.43828 16.1022 0.583762L28.6047 13.0813C28.8981 13.3747 29.063 13.7726 29.0631 14.1875C29.0632 14.6024 28.8984 15.0004 28.6051 15.2938C28.3117 15.5873 27.9139 15.7522 27.4989 15.7523C27.084 15.7524 26.686 15.5876 26.3926 15.2943L16.5594 5.4618L16.5666 42.3149C16.5667 42.7293 16.4021 43.1268 16.1091 43.4199C15.8162 43.7129 15.4188 43.8776 15.0044 43.8777V43.8777Z" fill="#FFB93F"/>
</svg>
