<svg width="461" height="475" viewBox="0 0 461 475" fill="none" xmlns="http://www.w3.org/2000/svg">
<path d="M431.049 234.092C431.049 323.427 425.171 381.109 414.586 417.406C404.007 453.684 388.817 468.336 370.34 472.14C361.03 474.057 350.777 473.248 339.669 470.907C328.559 468.565 316.674 464.71 304.102 460.59L302.824 460.171C278.066 452.053 250.737 443.092 222.049 443.092C148.557 443.092 98.7783 439.653 65.426 432.101C32.0754 424.55 15.382 412.941 7.7016 396.788C-0.0294651 380.529 1.22267 359.418 4.50982 332.417C5.06945 327.82 5.68701 323.058 6.3264 318.127C9.43045 294.191 13.0489 266.288 13.0493 234.092C13.0488 149.363 18.9264 93.9836 29.5095 58.5508C40.0851 23.1429 55.2848 7.87056 73.8135 2.93385C92.5072 -2.04683 114.857 3.38357 140.046 10.1979C141.685 10.6412 143.335 11.0901 144.996 11.542C168.754 18.0058 194.774 25.0852 222.012 25.0917C310.102 31.716 367.176 40.898 403.26 52.7253C439.363 64.5589 454.17 78.9417 458.264 95.7739C460.324 104.242 459.707 113.446 457.57 123.458C455.431 133.474 451.79 144.215 447.86 155.755L447.694 156.242C439.889 179.157 431.049 205.112 431.049 234.092Z" fill="#96D8CA" stroke="#0F2D35" stroke-width="2"/>
</svg>
