<svg width="22" height="22" viewBox="0 0 22 22" fill="none" xmlns="http://www.w3.org/2000/svg">
<path d="M13.3499 10.999L20.5166 3.84901C20.8304 3.53517 21.0067 3.10951 21.0067 2.66567C21.0067 2.22184 20.8304 1.79618 20.5166 1.48234C20.2027 1.1685 19.7771 0.992187 19.3332 0.992188C18.8894 0.992188 18.4637 1.1685 18.1499 1.48234L10.9999 8.64901L3.8499 1.48234C3.53606 1.1685 3.1104 0.992187 2.66656 0.992188C2.22273 0.992188 1.79707 1.1685 1.48323 1.48234C1.16939 1.79618 0.993079 2.22184 0.993079 2.66567C0.993079 3.10951 1.16939 3.53517 1.48323 3.84901L8.6499 10.999L1.48323 18.149C1.32702 18.3039 1.20303 18.4883 1.11841 18.6914C1.0338 18.8945 0.990234 19.1123 0.990234 19.3323C0.990234 19.5524 1.0338 19.7702 1.11841 19.9733C1.20303 20.1764 1.32702 20.3607 1.48323 20.5157C1.63817 20.6719 1.8225 20.7959 2.0256 20.8805C2.2287 20.9651 2.44655 21.0087 2.66656 21.0087C2.88658 21.0087 3.10443 20.9651 3.30753 20.8805C3.51062 20.7959 3.69496 20.6719 3.8499 20.5157L10.9999 13.349L18.1499 20.5157C18.3048 20.6719 18.4892 20.7959 18.6923 20.8805C18.8954 20.9651 19.1132 21.0087 19.3332 21.0087C19.5532 21.0087 19.7711 20.9651 19.9742 20.8805C20.1773 20.7959 20.3616 20.6719 20.5166 20.5157C20.6728 20.3607 20.7968 20.1764 20.8814 19.9733C20.966 19.7702 21.0096 19.5524 21.0096 19.3323C21.0096 19.1123 20.966 18.8945 20.8814 18.6914C20.7968 18.4883 20.6728 18.3039 20.5166 18.149L13.3499 10.999Z" fill="#3C8F7D"/>
</svg>
