<svg width="50" height="50" viewBox="0 0 50 50" fill="none" xmlns="http://www.w3.org/2000/svg">
<path d="M27.0833 37.5H6.25001C5.69747 37.5 5.16757 37.2805 4.77687 36.8898C4.38617 36.4991 4.16667 35.9692 4.16667 35.4167V8.33333C4.16667 7.7808 4.38617 7.25089 4.77687 6.86019C5.16757 6.46949 5.69747 6.25 6.25001 6.25H43.75C44.3025 6.25 44.8324 6.46949 45.2231 6.86019C45.6138 7.25089 45.8333 7.7808 45.8333 8.33333V35.4167C45.8333 35.9692 45.6138 36.4991 45.2231 36.8898C44.8324 37.2805 44.3025 37.5 43.75 37.5H35.4167" stroke="#3C8F7D" stroke-width="2" stroke-linecap="round" stroke-linejoin="round"/>
<path d="M12.5 14.5834H37.5" stroke="#3C8F7D" stroke-width="2" stroke-linecap="round" stroke-linejoin="round"/>
<path d="M12.5 21.875H18.75" stroke="#3C8F7D" stroke-width="2" stroke-linecap="round" stroke-linejoin="round"/>
<path d="M12.5 29.1666H16.6667" stroke="#3C8F7D" stroke-width="2" stroke-linecap="round" stroke-linejoin="round"/>
<path d="M31.25 34.375C32.9076 34.375 34.4973 33.7165 35.6694 32.5444C36.8415 31.3723 37.5 29.7826 37.5 28.125C37.5 26.4674 36.8415 24.8777 35.6694 23.7056C34.4973 22.5335 32.9076 21.875 31.25 21.875C29.5924 21.875 28.0027 22.5335 26.8306 23.7056C25.6585 24.8777 25 26.4674 25 28.125C25 29.7826 25.6585 31.3723 26.8306 32.5444C28.0027 33.7165 29.5924 34.375 31.25 34.375V34.375Z" stroke="#3C8F7D" stroke-width="2"/>
<path d="M31.25 41.667L35.4167 43.7504V32.7837C35.4167 32.7837 34.2292 34.3754 31.25 34.3754C28.2708 34.3754 27.0833 32.8129 27.0833 32.8129V43.7504L31.25 41.667Z" stroke="#3C8F7D" stroke-width="2" stroke-linecap="round" stroke-linejoin="round"/>
</svg>
