<svg width="22" height="16" viewBox="0 0 22 16" fill="none" xmlns="http://www.w3.org/2000/svg">
<path fill-rule="evenodd" clip-rule="evenodd" d="M21.0601 0.93918C21.3413 1.22047 21.4993 1.60193 21.4993 1.99968C21.4993 2.39743 21.3413 2.77889 21.0601 3.06018L9.06013 15.0602C8.77884 15.3414 8.39738 15.4994 7.99963 15.4994C7.60189 15.4994 7.22043 15.3414 6.93913 15.0602L0.939134 9.06018C0.665897 8.77728 0.514705 8.39837 0.518123 8.00508C0.521541 7.61178 0.679294 7.23556 0.957406 6.95745C1.23552 6.67934 1.61174 6.52159 2.00503 6.51817C2.39833 6.51475 2.77723 6.66594 3.06013 6.93918L7.99963 11.8787L18.9391 0.93918C19.2204 0.657973 19.6019 0.5 19.9996 0.5C20.3974 0.5 20.7788 0.657973 21.0601 0.93918Z" fill="white"/>
</svg>
