<svg width="50" height="50" viewBox="0 0 50 50" fill="none" xmlns="http://www.w3.org/2000/svg">
<path d="M10.4167 12.5C12.7179 12.5 14.5833 10.6345 14.5833 8.33329C14.5833 6.03211 12.7179 4.16663 10.4167 4.16663C8.11548 4.16663 6.25 6.03211 6.25 8.33329C6.25 10.6345 8.11548 12.5 10.4167 12.5Z" stroke="#3C8F7D" stroke-width="2" stroke-linejoin="round"/>
<path d="M24.1667 46.333C26.4679 46.333 28.3333 44.4675 28.3333 42.1663C28.3333 39.8651 26.4679 37.9996 24.1667 37.9996C21.8655 37.9996 20 39.8651 20 42.1663C20 44.4675 21.8655 46.333 24.1667 46.333Z" stroke="#3C8F7D" stroke-width="2" stroke-linejoin="round"/>
<path d="M37.5 12.5C39.8012 12.5 41.6667 10.6345 41.6667 8.33329C41.6667 6.03211 39.8012 4.16663 37.5 4.16663C35.1988 4.16663 33.3333 6.03211 33.3333 8.33329C33.3333 10.6345 35.1988 12.5 37.5 12.5Z" stroke="#3C8F7D" stroke-width="2" stroke-linejoin="round"/>
<path d="M10.4167 12.5V15.625C10.4167 22.9167 23.9583 26.0417 23.9583 33.3333V37.5V33.3333C23.9583 26.0417 37.5 22.9167 37.5 15.625V12.5" stroke="#3C8F7D" stroke-width="2" stroke-linecap="round" stroke-linejoin="round"/>
</svg>
