<svg width="44" height="29" viewBox="0 0 44 29" fill="none" xmlns="http://www.w3.org/2000/svg">
<path fill-rule="evenodd" clip-rule="evenodd" d="M44 14.9355C44 14.5211 43.8354 14.1237 43.5424 13.8307C43.2493 13.5376 42.8519 13.373 42.4375 13.373L5.58437 13.373L15.4188 3.54178C15.7121 3.24839 15.877 2.85046 15.877 2.43553C15.877 2.02061 15.7121 1.62268 15.4188 1.32928C15.1254 1.03588 14.7274 0.871059 14.3125 0.871059C13.8976 0.871058 13.4996 1.03588 13.2062 1.32928L0.706249 13.8293C0.560741 13.9744 0.445293 14.1468 0.366524 14.3367C0.287754 14.5265 0.247208 14.73 0.247208 14.9355C0.247208 15.1411 0.287754 15.3446 0.366524 15.5344C0.445293 15.7242 0.560741 15.8966 0.706249 16.0418L13.2062 28.5418C13.4996 28.8352 13.8976 29 14.3125 29C14.7274 29 15.1254 28.8352 15.4188 28.5418C15.7121 28.2484 15.877 27.8505 15.877 27.4355C15.877 27.0206 15.7121 26.6227 15.4188 26.3293L5.58437 16.498H42.4375C42.8519 16.498 43.2493 16.3334 43.5424 16.0404C43.8354 15.7474 44 15.3499 44 14.9355Z" fill="#0F2D35"/>
</svg>
