<svg width="44" height="29" viewBox="0 0 44 29" fill="none" xmlns="http://www.w3.org/2000/svg">
<path fill-rule="evenodd" clip-rule="evenodd" d="M0 14.9355C0 14.5211 0.16462 14.1237 0.457646 13.8307C0.750671 13.5376 1.1481 13.373 1.5625 13.373L38.4156 13.373L28.5812 3.54178C28.2879 3.24839 28.123 2.85046 28.123 2.43553C28.123 2.02061 28.2879 1.62268 28.5812 1.32928C28.8746 1.03588 29.2726 0.871059 29.6875 0.871059C30.1024 0.871058 30.5004 1.03588 30.7938 1.32928L43.2938 13.8293C43.4393 13.9744 43.5547 14.1468 43.6335 14.3367C43.7122 14.5265 43.7528 14.73 43.7528 14.9355C43.7528 15.1411 43.7122 15.3446 43.6335 15.5344C43.5547 15.7242 43.4393 15.8966 43.2938 16.0418L30.7938 28.5418C30.5004 28.8352 30.1024 29 29.6875 29C29.2726 29 28.8746 28.8352 28.5812 28.5418C28.2879 28.2484 28.123 27.8505 28.123 27.4355C28.123 27.0206 28.2879 26.6227 28.5812 26.3293L38.4156 16.498H1.5625C1.1481 16.498 0.750671 16.3334 0.457646 16.0404C0.16462 15.7474 0 15.3499 0 14.9355Z" fill="#0F2D35"/>
</svg>
